<mxfile host="app.diagrams.net" modified="2022-10-07T13:09:14.945Z" agent="5.0 (Windows)" etag="VCcON6vSu9qXCXqCr4pA" version="20.4.0" type="github">
  <diagram id="C5RBs43oDa-KdzZeNtuy" name="Page-1">
    <mxGraphModel dx="782" dy="392" grid="1" gridSize="10" guides="1" tooltips="1" connect="1" arrows="1" fold="1" page="1" pageScale="1" pageWidth="827" pageHeight="1169" math="0" shadow="0">
      <root>
        <mxCell id="WIyWlLk6GJQsqaUBKTNV-0" />
        <mxCell id="WIyWlLk6GJQsqaUBKTNV-1" parent="WIyWlLk6GJQsqaUBKTNV-0" />
        <mxCell id="WIyWlLk6GJQsqaUBKTNV-2" value="" style="rounded=0;html=1;jettySize=auto;orthogonalLoop=1;fontSize=11;endArrow=block;endFill=0;endSize=8;strokeWidth=1;shadow=0;labelBackgroundColor=none;edgeStyle=orthogonalEdgeStyle;" parent="WIyWlLk6GJQsqaUBKTNV-1" edge="1">
          <mxGeometry relative="1" as="geometry">
            <mxPoint x="220" y="90" as="sourcePoint" />
            <mxPoint x="220" y="110" as="targetPoint" />
          </mxGeometry>
        </mxCell>
        <mxCell id="WIyWlLk6GJQsqaUBKTNV-4" value="Yes" style="rounded=0;html=1;jettySize=auto;orthogonalLoop=1;fontSize=11;endArrow=block;endFill=0;endSize=8;strokeWidth=1;shadow=0;labelBackgroundColor=none;edgeStyle=orthogonalEdgeStyle;" parent="WIyWlLk6GJQsqaUBKTNV-1" source="WIyWlLk6GJQsqaUBKTNV-6" edge="1">
          <mxGeometry y="20" relative="1" as="geometry">
            <mxPoint as="offset" />
            <mxPoint x="220" y="320" as="targetPoint" />
          </mxGeometry>
        </mxCell>
        <mxCell id="WIyWlLk6GJQsqaUBKTNV-5" value="No" style="edgeStyle=orthogonalEdgeStyle;rounded=0;html=1;jettySize=auto;orthogonalLoop=1;fontSize=11;endArrow=block;endFill=0;endSize=8;strokeWidth=1;shadow=0;labelBackgroundColor=none;" parent="WIyWlLk6GJQsqaUBKTNV-1" source="WIyWlLk6GJQsqaUBKTNV-6" edge="1">
          <mxGeometry y="10" relative="1" as="geometry">
            <mxPoint as="offset" />
            <mxPoint x="220" y="530" as="targetPoint" />
            <Array as="points">
              <mxPoint x="390" y="250" />
              <mxPoint x="390" y="530" />
            </Array>
          </mxGeometry>
        </mxCell>
        <mxCell id="WIyWlLk6GJQsqaUBKTNV-6" value="for 0=&amp;lt;i&amp;lt;n" style="rhombus;whiteSpace=wrap;html=1;shadow=0;fontFamily=Helvetica;fontSize=12;align=center;strokeWidth=1;spacing=6;spacingTop=-4;" parent="WIyWlLk6GJQsqaUBKTNV-1" vertex="1">
          <mxGeometry x="170" y="210" width="100" height="80" as="geometry" />
        </mxCell>
        <mxCell id="WIyWlLk6GJQsqaUBKTNV-8" value="No" style="rounded=0;html=1;jettySize=auto;orthogonalLoop=1;fontSize=11;endArrow=block;endFill=0;endSize=8;strokeWidth=1;shadow=0;labelBackgroundColor=none;edgeStyle=orthogonalEdgeStyle;exitX=0.5;exitY=1;exitDx=0;exitDy=0;" parent="WIyWlLk6GJQsqaUBKTNV-1" source="l7zTHeNhNNN-hhmFzSHj-5" edge="1">
          <mxGeometry x="1" y="194" relative="1" as="geometry">
            <mxPoint x="-84" y="160" as="offset" />
            <mxPoint x="220" y="400" as="sourcePoint" />
            <mxPoint x="220" y="410" as="targetPoint" />
          </mxGeometry>
        </mxCell>
        <mxCell id="l7zTHeNhNNN-hhmFzSHj-3" value="" style="edgeStyle=orthogonalEdgeStyle;rounded=0;orthogonalLoop=1;jettySize=auto;html=1;" edge="1" parent="WIyWlLk6GJQsqaUBKTNV-1" source="l7zTHeNhNNN-hhmFzSHj-0" target="WIyWlLk6GJQsqaUBKTNV-6">
          <mxGeometry relative="1" as="geometry" />
        </mxCell>
        <mxCell id="l7zTHeNhNNN-hhmFzSHj-0" value="задание массива из строк string[ ]arr" style="rounded=0;whiteSpace=wrap;html=1;" vertex="1" parent="WIyWlLk6GJQsqaUBKTNV-1">
          <mxGeometry x="160" y="110" width="120" height="70" as="geometry" />
        </mxCell>
        <mxCell id="l7zTHeNhNNN-hhmFzSHj-4" value="" style="edgeStyle=orthogonalEdgeStyle;rounded=0;orthogonalLoop=1;jettySize=auto;html=1;" edge="1" parent="WIyWlLk6GJQsqaUBKTNV-1" source="l7zTHeNhNNN-hhmFzSHj-1" target="l7zTHeNhNNN-hhmFzSHj-2">
          <mxGeometry relative="1" as="geometry" />
        </mxCell>
        <mxCell id="l7zTHeNhNNN-hhmFzSHj-1" value="начало" style="rounded=1;whiteSpace=wrap;html=1;" vertex="1" parent="WIyWlLk6GJQsqaUBKTNV-1">
          <mxGeometry x="160" y="10" width="120" height="20" as="geometry" />
        </mxCell>
        <mxCell id="l7zTHeNhNNN-hhmFzSHj-2" value="&lt;div&gt;Длина массива n,&lt;/div&gt;&lt;div&gt;&amp;nbsp;int i, int j&lt;/div&gt;" style="rounded=0;whiteSpace=wrap;html=1;" vertex="1" parent="WIyWlLk6GJQsqaUBKTNV-1">
          <mxGeometry x="160" y="50" width="120" height="40" as="geometry" />
        </mxCell>
        <mxCell id="l7zTHeNhNNN-hhmFzSHj-5" value="&lt;div&gt;ввод i-го элемента массива с клавиатуры&lt;br&gt;&lt;/div&gt;&lt;div&gt;Console.Write&lt;br&gt;&lt;/div&gt;" style="rounded=0;whiteSpace=wrap;html=1;" vertex="1" parent="WIyWlLk6GJQsqaUBKTNV-1">
          <mxGeometry x="160" y="320" width="120" height="60" as="geometry" />
        </mxCell>
        <mxCell id="l7zTHeNhNNN-hhmFzSHj-19" value="" style="edgeStyle=orthogonalEdgeStyle;rounded=0;orthogonalLoop=1;jettySize=auto;html=1;" edge="1" parent="WIyWlLk6GJQsqaUBKTNV-1" source="l7zTHeNhNNN-hhmFzSHj-6" target="l7zTHeNhNNN-hhmFzSHj-18">
          <mxGeometry relative="1" as="geometry" />
        </mxCell>
        <mxCell id="l7zTHeNhNNN-hhmFzSHj-21" value="" style="edgeStyle=orthogonalEdgeStyle;rounded=0;orthogonalLoop=1;jettySize=auto;html=1;" edge="1" parent="WIyWlLk6GJQsqaUBKTNV-1" source="l7zTHeNhNNN-hhmFzSHj-6">
          <mxGeometry relative="1" as="geometry">
            <mxPoint x="220" y="830" as="targetPoint" />
            <Array as="points">
              <mxPoint x="360" y="665" />
              <mxPoint x="360" y="830" />
            </Array>
          </mxGeometry>
        </mxCell>
        <mxCell id="l7zTHeNhNNN-hhmFzSHj-6" value="&lt;br&gt;if arr[j].Lenght &amp;lt;= 3&lt;br&gt;" style="rounded=0;whiteSpace=wrap;html=1;" vertex="1" parent="WIyWlLk6GJQsqaUBKTNV-1">
          <mxGeometry x="160" y="640" width="120" height="50" as="geometry" />
        </mxCell>
        <mxCell id="l7zTHeNhNNN-hhmFzSHj-13" value="" style="edgeStyle=orthogonalEdgeStyle;rounded=0;orthogonalLoop=1;jettySize=auto;html=1;entryX=0.5;entryY=0;entryDx=0;entryDy=0;" edge="1" parent="WIyWlLk6GJQsqaUBKTNV-1" source="l7zTHeNhNNN-hhmFzSHj-7" target="l7zTHeNhNNN-hhmFzSHj-8">
          <mxGeometry relative="1" as="geometry" />
        </mxCell>
        <mxCell id="l7zTHeNhNNN-hhmFzSHj-7" value="&lt;div&gt;считывание i -го элемента в массив&lt;/div&gt;&lt;div&gt;Console.ReadLine&lt;br&gt;&lt;/div&gt;" style="rounded=0;whiteSpace=wrap;html=1;" vertex="1" parent="WIyWlLk6GJQsqaUBKTNV-1">
          <mxGeometry x="160" y="410" width="120" height="50" as="geometry" />
        </mxCell>
        <mxCell id="l7zTHeNhNNN-hhmFzSHj-10" value="" style="edgeStyle=orthogonalEdgeStyle;rounded=0;orthogonalLoop=1;jettySize=auto;html=1;" edge="1" parent="WIyWlLk6GJQsqaUBKTNV-1" source="l7zTHeNhNNN-hhmFzSHj-8" target="l7zTHeNhNNN-hhmFzSHj-9">
          <mxGeometry relative="1" as="geometry" />
        </mxCell>
        <mxCell id="l7zTHeNhNNN-hhmFzSHj-11" value="" style="edgeStyle=orthogonalEdgeStyle;rounded=0;orthogonalLoop=1;jettySize=auto;html=1;" edge="1" parent="WIyWlLk6GJQsqaUBKTNV-1" source="l7zTHeNhNNN-hhmFzSHj-8" target="l7zTHeNhNNN-hhmFzSHj-9">
          <mxGeometry relative="1" as="geometry" />
        </mxCell>
        <mxCell id="l7zTHeNhNNN-hhmFzSHj-8" value="i++" style="rounded=0;whiteSpace=wrap;html=1;" vertex="1" parent="WIyWlLk6GJQsqaUBKTNV-1">
          <mxGeometry x="160" y="480" width="120" height="30" as="geometry" />
        </mxCell>
        <mxCell id="l7zTHeNhNNN-hhmFzSHj-15" value="" style="edgeStyle=orthogonalEdgeStyle;rounded=0;orthogonalLoop=1;jettySize=auto;html=1;" edge="1" parent="WIyWlLk6GJQsqaUBKTNV-1" source="l7zTHeNhNNN-hhmFzSHj-9">
          <mxGeometry relative="1" as="geometry">
            <mxPoint x="220" y="850" as="targetPoint" />
            <Array as="points">
              <mxPoint x="400" y="585" />
              <mxPoint x="400" y="850" />
            </Array>
          </mxGeometry>
        </mxCell>
        <mxCell id="l7zTHeNhNNN-hhmFzSHj-16" value="" style="edgeStyle=orthogonalEdgeStyle;rounded=0;orthogonalLoop=1;jettySize=auto;html=1;" edge="1" parent="WIyWlLk6GJQsqaUBKTNV-1" source="l7zTHeNhNNN-hhmFzSHj-9" target="l7zTHeNhNNN-hhmFzSHj-6">
          <mxGeometry relative="1" as="geometry" />
        </mxCell>
        <mxCell id="l7zTHeNhNNN-hhmFzSHj-9" value="for 0&amp;lt;j&amp;lt;n" style="rhombus;whiteSpace=wrap;html=1;" vertex="1" parent="WIyWlLk6GJQsqaUBKTNV-1">
          <mxGeometry x="145" y="550" width="150" height="70" as="geometry" />
        </mxCell>
        <mxCell id="l7zTHeNhNNN-hhmFzSHj-12" value="Yes" style="text;html=1;align=center;verticalAlign=middle;resizable=0;points=[];autosize=1;strokeColor=none;fillColor=none;" vertex="1" parent="WIyWlLk6GJQsqaUBKTNV-1">
          <mxGeometry x="230" y="610" width="40" height="30" as="geometry" />
        </mxCell>
        <mxCell id="l7zTHeNhNNN-hhmFzSHj-23" value="" style="edgeStyle=orthogonalEdgeStyle;rounded=0;orthogonalLoop=1;jettySize=auto;html=1;" edge="1" parent="WIyWlLk6GJQsqaUBKTNV-1" source="l7zTHeNhNNN-hhmFzSHj-18" target="l7zTHeNhNNN-hhmFzSHj-22">
          <mxGeometry relative="1" as="geometry" />
        </mxCell>
        <mxCell id="l7zTHeNhNNN-hhmFzSHj-18" value="печать нового массива из&amp;nbsp; a[j] элемнтов удовлетворяющих условию" style="shape=document;whiteSpace=wrap;html=1;boundedLbl=1;" vertex="1" parent="WIyWlLk6GJQsqaUBKTNV-1">
          <mxGeometry x="125" y="730" width="190" height="90" as="geometry" />
        </mxCell>
        <mxCell id="l7zTHeNhNNN-hhmFzSHj-22" value="конец" style="rounded=1;whiteSpace=wrap;html=1;" vertex="1" parent="WIyWlLk6GJQsqaUBKTNV-1">
          <mxGeometry x="160" y="870" width="120" height="25" as="geometry" />
        </mxCell>
        <mxCell id="l7zTHeNhNNN-hhmFzSHj-24" value="yes" style="text;html=1;align=center;verticalAlign=middle;resizable=0;points=[];autosize=1;strokeColor=none;fillColor=none;" vertex="1" parent="WIyWlLk6GJQsqaUBKTNV-1">
          <mxGeometry x="220" y="690" width="40" height="30" as="geometry" />
        </mxCell>
        <mxCell id="l7zTHeNhNNN-hhmFzSHj-25" value="No" style="text;html=1;align=center;verticalAlign=middle;resizable=0;points=[];autosize=1;strokeColor=none;fillColor=none;" vertex="1" parent="WIyWlLk6GJQsqaUBKTNV-1">
          <mxGeometry x="290" y="635" width="40" height="30" as="geometry" />
        </mxCell>
      </root>
    </mxGraphModel>
  </diagram>
</mxfile>
